<svg width="53" height="44" viewBox="0 0 53 44" fill="none" xmlns="http://www.w3.org/2000/svg">
<path fill-rule="evenodd" clip-rule="evenodd" d="M39.75 22L39.739 21.8042C41.7176 21.5534 43.407 22.825 44.0717 23.8876C43.1089 35.1538 33.6395 44 22.0833 44C9.88671 44 0 34.1506 0 22C0 9.8494 9.88671 0 22.0833 0C25.3892 0 28.514 0.7436 31.3296 2.0394C31.9524 3.4386 31.7448 5.5462 31.0072 6.8354C28.3837 5.2976 25.3406 4.4 22.0833 4.4C12.3424 4.4 4.41667 12.2958 4.41667 22C4.41667 31.7042 12.3424 39.6 22.0833 39.6C31.8243 39.6 39.75 31.7042 39.75 22ZM22.0833 17.6C19.6431 17.6 17.6667 19.5712 17.6667 22C17.6667 24.4288 19.6431 26.4 22.0833 26.4C24.5235 26.4 26.5 24.4288 26.5 22L26.4956 21.967L33.9156 17.677C36.0709 16.434 39.8869 16.9378 42.1107 18.0268L53 11.7282L46.0261 8.2764L46.3993 0.286L35.4791 6.6C35.3245 9.0662 33.8582 12.6192 31.7139 13.8622L24.2431 18.183C23.6027 17.8244 22.8717 17.6 22.0833 17.6ZM13.25 22C13.25 26.8532 17.2118 30.8 22.0833 30.8C25.9722 30.8 29.2428 28.2678 30.4198 24.7852L35.3311 21.945L35.3333 22C35.3333 29.2908 29.4017 35.2 22.0833 35.2C14.7649 35.2 8.83333 29.2908 8.83333 22C8.83333 14.7092 14.7649 8.8 22.0833 8.8C24.4772 8.8 26.7164 9.4424 28.6531 10.5468L23.7727 13.3694C23.225 13.2638 22.6619 13.2 22.0833 13.2C17.2118 13.2 13.25 17.1468 13.25 22Z" fill="#FFC300"/>
</svg>
