<svg width="56" height="42" viewBox="0 0 56 42" fill="none" xmlns="http://www.w3.org/2000/svg">
<path fill-rule="evenodd" clip-rule="evenodd" d="M38.2037 28L46.2117 0H56L54.2663 4.66667H49.7653L41.6593 32.6667H10.7683L8.81067 28H38.2037ZM0 7L6.853 23.3333H34.615L39.228 7H0ZM23.3333 38.5C23.3333 40.4343 21.7653 42 19.8333 42C17.9013 42 16.3333 40.4343 16.3333 38.5C16.3333 36.568 17.9013 35 19.8333 35C21.7653 35 23.3333 36.568 23.3333 38.5ZM31.5 35C29.568 35 28 36.5657 28 38.5C28 40.4343 29.568 42 31.5 42C33.432 42 35 40.4343 35 38.5C35 36.568 33.432 35 31.5 35ZM33.0633 11.6667H7.01867L9.95633 18.6667H31.087L33.0633 11.6667Z" fill="#FFC300"/>
</svg>
